<?xml version="1.0" encoding="utf-8"?>
<!-- Generator: Adobe Illustrator 21.0.0, SVG Export Plug-In . SVG Version: 6.00 Build 0)  -->
<svg version="1.1" id="Layer_1" xmlns="http://www.w3.org/2000/svg" xmlns:xlink="http://www.w3.org/1999/xlink" x="0px" y="0px"
	 viewBox="0 0 391.5 396.4" style="enable-background:new 0 0 391.5 396.4;" xml:space="preserve">
<style type="text/css">
	.st0{fill:url(#SVGID_1_);}
	.st1{fill:url(#SVGID_2_);}
	.st2{fill:url(#SVGID_3_);}
	.st3{fill:url(#SVGID_4_);}
	.st4{fill:url(#SVGID_5_);}
	.st5{fill:#EBE6E0;}
	.st6{fill:#5B5C5E;}
	.st7{fill:url(#SVGID_6_);}
	.st8{fill:url(#SVGID_7_);}
	.st9{fill:url(#SVGID_8_);}
	.st10{fill:url(#SVGID_9_);}
	.st11{fill:url(#SVGID_10_);}
	.st12{fill:url(#SVGID_11_);}
	.st13{fill:#FED136;}
	.st14{enable-background:new    ;}
</style>
<g>
	<g>
		<g>
			<g>
				<g>
					
						<linearGradient id="SVGID_1_" gradientUnits="userSpaceOnUse" x1="100.2" y1="389.2" x2="297" y2="389.2" gradientTransform="matrix(1 0 0 1 0 -102)">
						<stop  offset="0" style="stop-color:#A76CAE"/>
						<stop  offset="1" style="stop-color:#893A95"/>
					</linearGradient>
					<path class="st0" d="M100.2,324.3c0,0,2.7-18.9,3.2-23.5s0.7-10.6,2.7-15.3c2-4.7,8-15.2,16.8-22.1s24.7-12.7,26.9-13.5
						l21.3,42.4l27.4-38.4l27.5,38.7l21.5-42.6c0,0,11.6,4.9,16,6.9c4.3,2,12.9,6.8,20.2,16.5c7.3,9.7,8.6,17.1,9,21.2
						s4.3,29.9,4.3,29.9L100.2,324.3L100.2,324.3z"/>
					
						<linearGradient id="SVGID_2_" gradientUnits="userSpaceOnUse" x1="149.7" y1="366.75" x2="198.4" y2="366.75" gradientTransform="matrix(1 0 0 1 0 -102)">
						<stop  offset="0" style="stop-color:#F58267"/>
						<stop  offset="1" style="stop-color:#D52C2F"/>
					</linearGradient>
					<path class="st1" d="M198.4,253.8L171,292.2l-21.3-42.4c0,0,8.6-3.5,10.3-4.8s8.2-7.7,8.2-7.7L198.4,253.8z"/>
					
						<linearGradient id="SVGID_3_" gradientUnits="userSpaceOnUse" x1="198.4" y1="366.9" x2="247.45" y2="366.9" gradientTransform="matrix(1 0 0 1 0 -102)">
						<stop  offset="0" style="stop-color:#F58267"/>
						<stop  offset="1" style="stop-color:#D52C2F"/>
					</linearGradient>
					<path class="st2" d="M198.4,253.8l30.7-16.5c0,0,5.9,6.9,8.7,8.3c2.7,1.3,9.7,4.3,9.7,4.3L226,292.5L198.4,253.8z"/>
					
						<linearGradient id="SVGID_4_" gradientUnits="userSpaceOnUse" x1="183.8446" y1="391" x2="213.1055" y2="391" gradientTransform="matrix(1 0 0 1 0 -102)">
						<stop  offset="0" style="stop-color:#737476"/>
						<stop  offset="0.1575" style="stop-color:#6C6D6F"/>
						<stop  offset="0.6391" style="stop-color:#5B5C5E"/>
						<stop  offset="1" style="stop-color:#555658"/>
					</linearGradient>
					<path class="st3" d="M198.4,253.8l8.4,11.8l-3.6,6.3c0,0-0.9,1.3-0.2,3.6s9.4,34.2,9.4,34.2s1.2,2.6,0.4,5.6s-2.4,8.9-2.4,8.9
						h-23.9c0,0-1.9-6.5-2.3-7.6s-0.7-2.4,0-5.4s9.8-36.7,9.8-36.7s0.6-1.4-0.8-3.3s-3.1-5.9-3.1-5.9L198.4,253.8z"/>
				</g>
				
					<linearGradient id="SVGID_5_" gradientUnits="userSpaceOnUse" x1="168.2" y1="340.2" x2="229.1" y2="340.2" gradientTransform="matrix(1 0 0 1 0 -102)">
					<stop  offset="0" style="stop-color:#ECE4D9"/>
					<stop  offset="1" style="stop-color:#D2CDC7"/>
				</linearGradient>
				<path class="st4" d="M229.1,237.3l-30.7,16.5l-30.2-16.5v-14.7c0,0,7,5.4,16.8,10.9s19.4,4.9,25.8,1.9c6.4-3,18-11.3,18-11.3
					L229.1,237.3z"/>
				<path class="st5" d="M245.2,180.9c0,4.2-2.5,18.9-2.5,18.9l2.5-3v3.3c0,0-1.7,16.6-16.4,24.1c0,0-11.6,8.2-18,11.3
					c-6.4,3-16,3.6-25.8-1.9s-16.8-10.9-16.8-10.9s-5.4-2.9-9.9-10.8c-2.2-4-3.1-8-3.4-12c-0.3-4-0.1-8-0.2-11.7
					c-0.1-7.3,1.3-25.7,1.3-25.7c9.3-7.6,19.8-21.9,19.8-21.9c-3.7,11.4-11.9,19.7-11.9,19.7c2-0.4,4-0.9,6-1.5
					c0.7-0.2,1.4-0.4,2.1-0.6c0.4-0.1,0.8-0.3,1.2-0.4c0.4-0.1,0.8-0.3,1.1-0.4c0.4-0.1,0.8-0.3,1.1-0.4c0.4-0.1,0.8-0.3,1.1-0.4
					c0.4-0.1,0.8-0.3,1.1-0.4c0.4-0.1,0.7-0.3,1.1-0.4c0.4-0.1,0.7-0.3,1.1-0.4c0.3-0.1,0.6-0.3,1-0.4c0.4-0.1,0.7-0.3,1.1-0.4
					c0.7-0.3,1.4-0.6,2.1-0.9c0.2-0.1,0.4-0.2,0.7-0.3c1.9-0.8,3.7-1.7,5.5-2.6c0.3-0.2,0.7-0.3,1-0.5s0.6-0.3,1-0.5
					c3.2-1.6,6.1-3.2,8.7-4.8c0.2-0.1,0.4-0.2,0.6-0.4c0.1,0,0.1-0.1,0.2-0.1c0.1-0.1,0.3-0.1,0.4-0.2c1.1-0.7,2.2-1.3,3.1-1.9
					c0.2-0.1,0.3-0.2,0.5-0.3c0,0,0,0,0.1,0c0.1-0.1,0.2-0.1,0.3-0.2c0.5-0.3,1.1-0.7,1.6-1c0.1-0.1,0.2-0.1,0.3-0.2
					c3.1-2,5-3.4,5.1-3.5c-0.1,0.3-0.3,0.6-0.4,0.9c-0.2,0.3-0.3,0.6-0.5,0.9l0,0c-0.2,0.3-0.3,0.6-0.5,0.9l0,0
					c-0.3,0.4-0.6,0.9-0.9,1.3c-0.3,0.4-0.6,0.8-0.9,1.2c-0.3,0.4-0.7,0.8-1,1.2c-0.5,0.5-0.9,1-1.4,1.5c-5.4,5.4-12,8.6-12,8.6
					c19.6-3.3,36.2-16.3,36.2-16.3l0,0c8.7,1.7,9,10.3,8.3,15.9c0,0.1,0,0.2,0,0.3s0,0.2,0,0.3c-0.1,0.6-0.2,1.2-0.3,1.8
					c0,0.1-0.1,0.3-0.1,0.4c0,0.1-0.1,0.2-0.1,0.4s-0.1,0.3-0.1,0.5c-0.1,0.4-0.2,0.6-0.2,0.8v0.1c0,0.1,0,0.1,0,0.1v0.1l0,0
					c0.2,0.1,0.3,0.3,0.4,0.5c0.1,0.1,0.2,0.2,0.2,0.3c0.1,0.1,0.2,0.2,0.3,0.3c0.1,0.2,0.3,0.3,0.4,0.5c0.2,0.2,0.4,0.5,0.5,0.7
					c0.1,0.1,0.2,0.3,0.3,0.5c0.3,0.4,0.6,0.9,0.8,1.3c0.1,0.2,0.2,0.4,0.3,0.5c0.1,0.2,0.2,0.4,0.3,0.5c0.1,0.3,0.3,0.6,0.4,0.8
					c0.1,0.2,0.1,0.3,0.2,0.5c0,0,0,0,0,0.1c0.1,0.1,0.1,0.3,0.2,0.4c0.1,0.3,0.2,0.6,0.3,0.9c0.1,0.2,0.1,0.4,0.2,0.6
					c0.1,0.2,0.1,0.4,0.2,0.6c0,0.2,0.1,0.3,0.1,0.5s0.1,0.3,0.1,0.5s0.1,0.4,0.1,0.6c0,0.2,0.1,0.4,0.1,0.6c0,0.2,0.1,0.4,0.1,0.6
					c0.1,0.8,0.2,1.5,0.3,2.2c0,0.2,0,0.4,0.1,0.5c0,0.2,0,0.4,0.1,0.6c0,0.5,0.1,1,0.1,1.5c0,0.2,0,0.3,0,0.5L245.2,180.9
					L245.2,180.9z"/>
				<path class="st6" d="M156.1,162.3c0,0-0.9,34.6-1.2,37.4l0,0c-0.3-4-0.1-8-0.2-11.7C154.6,180.7,156.1,162.3,156.1,162.3z"/>
				<path class="st6" d="M156.1,162.3c0,0-0.9,34.6-1.2,37.4l0,0c-0.3-4-0.1-8-0.2-11.7C154.6,180.7,156.1,162.3,156.1,162.3z"/>
				<path class="st6" d="M142.6,156.3c0,0-0.7-20.4,3.3-32.9c4-12.6,13.3-22,24.3-26.6c11-4.7,47.1-13.6,59,6.3
					c0,0,10.1,0.4,18.4,5.8c8.3,5.4,12.1,12.8,11.9,22.6s-1.6,17.4-1.6,17.4l-6.5,37.2l-6.3,10.7l-2.5,3c0,0,2.5-14.6,2.5-18.9
					s0.9-16-6.2-22.9c0,0,5.8-18.2-7.3-20.6c0,0-16.5,13.1-36.2,16.3c0,0,13.3-6.5,17.7-16.6c0,0-23.9,17.7-49.2,23.1
					c0,0,8.2-8.3,11.9-19.7c0,0-10.5,14.3-19.8,21.9c0,0-0.9,34.6-1.2,37.4C154.9,199.7,143.6,168.5,142.6,156.3z"/>
			</g>
			
				<linearGradient id="SVGID_6_" gradientUnits="userSpaceOnUse" x1="140.2" y1="229.65" x2="258.6" y2="229.65" gradientTransform="matrix(1 0 0 1 0 -102)">
				<stop  offset="0" style="stop-color:#B4BDCC"/>
				<stop  offset="1" style="stop-color:#E5E8ED"/>
			</linearGradient>
			<path class="st7" d="M140.2,157.3c0-32.8,26.5-59.4,59.2-59.4c32.4,0,58.8,26.1,59.2,58.6l-6.9-0.2
				c-0.6-28.5-23.8-51.4-52.3-51.4c-28.9,0-52.3,23.5-52.3,52.5L140.2,157.3L140.2,157.3z"/>
			<g>
				
					<linearGradient id="SVGID_7_" gradientUnits="userSpaceOnUse" x1="138.65" y1="258.2" x2="138.65" y2="298.8" gradientTransform="matrix(1 0 0 1 0 -102)">
					<stop  offset="0" style="stop-color:#E14135"/>
					<stop  offset="1" style="stop-color:#F46C52"/>
				</linearGradient>
				<path class="st8" d="M144.7,196.8H136c-1.9,0-3.4-1.5-3.4-3.4v-33.8c0-1.9,1.5-3.4,3.4-3.4h8.7V196.8z"/>
				
					<linearGradient id="SVGID_8_" gradientUnits="userSpaceOnUse" x1="149.65" y1="301.8" x2="149.65" y2="255.154" gradientTransform="matrix(1 0 0 1 0 -102)">
					<stop  offset="0" style="stop-color:#595E5A"/>
					<stop  offset="1" style="stop-color:#CCD1CD"/>
				</linearGradient>
				<path class="st9" d="M154.6,198.1c0,0.9-0.8,1.7-1.7,1.7h-6.5c-0.9,0-1.7-0.8-1.7-1.7v-43.3c0-0.9,0.8-1.7,1.7-1.7h6.5
					c0.9,0,1.7,0.8,1.7,1.7V198.1z"/>
			</g>
			
				<linearGradient id="SVGID_9_" gradientUnits="userSpaceOnUse" x1="202.5852" y1="316.8814" x2="253" y2="316.8814" gradientTransform="matrix(1 0 0 1 0 -102)">
				<stop  offset="0" style="stop-color:#F68469"/>
				<stop  offset="1" style="stop-color:#DB3632"/>
			</linearGradient>
			<path class="st10" d="M253,199.9c0,0-6.2,10.2-14.3,16s-15.4,9-22.2,10.9s-11.8,5.2-13.5,1.1c-1.7-4,2.1-4.8,6.4-6
				c4.4-1.2,15.4-4.2,22.6-9.4s9.3-8.6,13.4-12.6H253L253,199.9z"/>
			<g>
				
					<linearGradient id="SVGID_10_" gradientUnits="userSpaceOnUse" x1="1589.3881" y1="258.2" x2="1589.3881" y2="298.8" gradientTransform="matrix(-1 0 0 1 1850.5381 -102)">
					<stop  offset="0" style="stop-color:#E14135"/>
					<stop  offset="1" style="stop-color:#F46C52"/>
				</linearGradient>
				<path class="st11" d="M255.1,156.2h8.7c1.9,0,3.4,1.5,3.4,3.4v33.8c0,1.9-1.5,3.4-3.4,3.4h-8.7L255.1,156.2L255.1,156.2z"/>
				
					<linearGradient id="SVGID_11_" gradientUnits="userSpaceOnUse" x1="1600.2881" y1="301.7" x2="1600.2881" y2="255.054" gradientTransform="matrix(-1 0 0 1 1850.5381 -102)">
					<stop  offset="0" style="stop-color:#595E5A"/>
					<stop  offset="1" style="stop-color:#CCD1CD"/>
				</linearGradient>
				<path class="st12" d="M245.3,198c0,0.9,0.8,1.7,1.7,1.7h6.5c0.9,0,1.7-0.8,1.7-1.7v-43.3c0-0.9-0.8-1.7-1.7-1.7H247
					c-0.9,0-1.7,0.8-1.7,1.7V198z"/>
			</g>
		</g>
		<g>
			<path class="st13" d="M33.1,152.7c-1.1,0.8-2.1,1.8-3,2.9c-0.8,1.1-1.4,2.4-1.8,3.8c-0.1,0.5-0.2,1.1-0.2,1.7
				c0,0.6,0.1,1.2,0.3,1.7c0.2,0.6,0.5,1,0.8,1.5c0.4,0.4,0.8,0.7,1.5,0.9c0.6,0.2,1.2,0.1,1.8-0.1c0.5-0.2,1-0.6,1.5-1
				s0.9-0.9,1.2-1.4c0.4-0.5,0.7-1,1-1.5l1.6-2.6c0.8-1.4,1.7-2.6,2.7-3.8c1-1.1,2-2.1,3.2-2.8s2.5-1.2,3.9-1.4s3-0.1,4.8,0.3
				c2.1,0.6,4.2,1.4,6.1,2.6c1.9,1.2,3.4,2.8,4.4,4.9c1,2.1,1.6,4.3,1.6,6.6c0.1,2.3-0.2,4.5-0.7,6.7c-0.7,2.7-1.8,5.3-3.4,7.7
				c-1.5,2.4-3.4,4.4-5.5,6.2l-7.8-7.1c1.6-1.1,3-2.4,4.3-3.8c1.3-1.4,2.2-3.1,2.7-5c0.2-0.6,0.2-1.3,0.2-2s-0.1-1.3-0.3-1.9
				c-0.2-0.6-0.6-1.1-1-1.6c-0.5-0.5-1.1-0.8-1.8-1c-0.8-0.2-1.5-0.1-2.2,0.2s-1.3,0.8-1.8,1.4c-0.6,0.6-1.1,1.3-1.5,2
				s-0.8,1.4-1.2,1.9c-0.9,1.6-1.9,3.1-2.8,4.4c-0.9,1.3-2,2.3-3.1,3.1s-2.5,1.3-3.9,1.5c-1.5,0.2-3.3,0-5.4-0.5
				c-2.2-0.6-4.1-1.4-5.7-2.7c-1.6-1.2-2.9-2.6-3.8-4.3c-0.9-1.6-1.5-3.5-1.7-5.4c-0.2-2,0-4.1,0.5-6.3c0.3-1.1,0.7-2.2,1.1-3.3
				c0.5-1.2,1-2.3,1.6-3.4c0.6-1.1,1.3-2.1,2-3.1s1.5-1.9,2.3-2.7L33.1,152.7z"/>
			<path class="st13" d="M84,123.2l-5.2,9.4l-2.9-1.6l-0.1,0.1c0.8,1.6,1.2,3.2,1,5.1s-0.7,3.5-1.6,5.1c-1.1,2-2.5,3.6-4.1,4.8
				c-1.7,1.2-3.5,2.1-5.4,2.5c-2,0.5-4,0.5-6.1,0.2s-4.1-1-6-2c-1.9-1.1-3.5-2.4-4.8-4s-2.3-3.3-3-5.2c-0.6-1.9-0.9-3.8-0.7-5.9
				c0.2-2.1,0.8-4.1,1.9-6c0.9-1.6,2-2.9,3.4-4s2.9-1.9,4.7-2.2l-2.6-1.4l5.2-9.4L84,123.2z M56.4,127.6c-0.5,1-0.8,1.9-0.9,2.8
				c-0.1,0.9,0,1.8,0.2,2.6s0.7,1.6,1.2,2.2c0.6,0.7,1.3,1.2,2.1,1.7c1.7,0.9,3.4,1.2,5.1,0.8s3.1-1.6,4.2-3.5s1.3-3.7,0.8-5.4
				c-0.6-1.7-1.7-3-3.4-3.9c-0.8-0.5-1.7-0.8-2.6-0.9c-0.9-0.1-1.7-0.1-2.5,0.1s-1.6,0.6-2.3,1.2C57.5,125.9,56.9,126.6,56.4,127.6z
				"/>
			<path class="st13" d="M94.8,111.3l-6.9,8.2L50.3,87.8l6.9-8.2L94.8,111.3z"/>
			<path class="st13" d="M113.5,76.8L96,91.2c1.4,1.7,2.9,2.6,4.5,2.8c1.6,0.2,3.3-0.5,5-1.9c0.9-0.7,1.5-1.5,1.9-2.4s0.5-1.9,0.3-3
				l8-6.6c0.8,1.6,1.2,3.3,1.3,5c0.1,1.7-0.2,3.3-0.7,4.8s-1.3,3-2.3,4.4s-2.2,2.6-3.5,3.7c-1.9,1.6-4,2.8-6.1,3.6
				c-2.1,0.8-4.2,1.2-6.3,1.2c-2.1-0.1-4.1-0.6-6-1.6c-2-1-3.8-2.5-5.4-4.5c-1.6-1.9-2.7-4-3.4-6c-0.6-2.1-0.8-4.1-0.6-6.1
				c0.3-2,0.9-3.9,2-5.8s2.6-3.6,4.5-5.2c2-1.7,4.1-2.9,6.2-3.6s4.1-0.9,6.2-0.7c2,0.2,4,0.9,5.9,2s3.7,2.7,5.3,4.7L113.5,76.8z
				 M101.8,78.4c-1.1-0.9-2.4-1.4-3.9-1.3c-1.4,0.1-2.7,0.6-3.9,1.5c-1.2,1-2,2.2-2.4,3.6s-0.2,2.8,0.6,4.2L101.8,78.4z"/>
			<path class="st13" d="M132.2,56.9c-0.9,0-1.9,0.1-3,0.3s-2,0.6-2.8,1c-0.3,0.1-0.6,0.3-0.9,0.6s-0.6,0.5-0.8,0.8
				c-0.2,0.3-0.4,0.6-0.5,0.9c-0.1,0.3-0.1,0.7,0.1,1c0.2,0.5,0.6,0.7,1.1,0.9c0.5,0.1,1,0.1,1.5,0.1c0.5-0.1,1.1-0.2,1.6-0.4
				s1-0.3,1.3-0.4c1.2-0.4,2.4-0.6,3.6-0.7c1.2-0.1,2.2,0,3.3,0.3c1,0.3,2,0.8,2.8,1.4c0.9,0.7,1.6,1.7,2.3,2.9
				c0.9,1.8,1.3,3.5,1.2,5.1s-0.5,3.2-1.3,4.6s-1.9,2.7-3.2,3.9c-1.3,1.2-2.8,2.1-4.3,2.9c-1.9,1-4,1.7-6.1,2.1
				c-2.1,0.4-4.3,0.5-6.4,0.4l0.1-8.5c0.7,0.1,1.4,0.1,2.2,0.1c0.8,0,1.6,0,2.4-0.1s1.6-0.2,2.4-0.4c0.8-0.2,1.4-0.4,2-0.7
				c0.3-0.2,0.6-0.4,0.9-0.6c0.3-0.2,0.6-0.5,0.8-0.9c0.2-0.3,0.3-0.7,0.4-1c0.1-0.3,0-0.7-0.2-1.1c-0.3-0.5-0.7-0.8-1.2-1
				c-0.5-0.1-1.1-0.1-1.7,0c-0.7,0.1-1.4,0.3-2.2,0.5s-1.6,0.4-2.5,0.6c-0.8,0.2-1.7,0.3-2.6,0.4s-1.7,0-2.6-0.3
				c-0.8-0.3-1.6-0.7-2.4-1.3c-0.8-0.6-1.5-1.6-2.1-2.8c-0.8-1.7-1.2-3.3-1.2-4.8c0.1-1.6,0.5-3,1.2-4.4s1.7-2.6,2.9-3.7
				s2.6-2,4.1-2.8s3.1-1.4,4.8-1.9c1.7-0.5,3.3-0.8,5-0.9V56.9z"/>
			<path class="st13" d="M193.9,38l-1.3-17.2l11.6-0.9l3.4,44.5L196,65.3l-1.4-18.2l-16.7,1.3l1.4,18.2l-11.6,0.9L164.3,23l11.6-0.9
				l1.3,17.2L193.9,38z"/>
			<path class="st13" d="M245.4,58.5L223.2,54c-0.4,2.2-0.2,3.9,0.7,5.3c0.9,1.3,2.4,2.2,4.6,2.7c1.1,0.2,2.1,0.2,3.1,0
				c0.9-0.2,1.8-0.8,2.5-1.7l10.1,2c-0.8,1.7-1.8,3-3,4.1s-2.6,1.9-4.2,2.5c-1.5,0.6-3.2,0.9-4.9,1s-3.4-0.1-5.1-0.4
				c-2.5-0.5-4.7-1.3-6.7-2.4s-3.6-2.5-4.8-4.1c-1.3-1.6-2.1-3.5-2.6-5.7s-0.5-4.5,0.1-7c0.5-2.5,1.3-4.6,2.6-6.4
				c1.2-1.8,2.7-3.2,4.4-4.3s3.7-1.8,5.8-2.1c2.2-0.3,4.5-0.3,6.9,0.2c2.6,0.5,4.8,1.4,6.7,2.5c1.9,1.2,3.3,2.6,4.4,4.3
				c1.1,1.7,1.8,3.7,2.1,5.8s0.2,4.5-0.3,7.1L245.4,58.5z M236.8,50.4c0-1.5-0.5-2.8-1.4-3.8c-1-1.1-2.2-1.8-3.6-2
				c-1.5-0.3-3-0.2-4.3,0.4c-1.3,0.6-2.3,1.6-2.9,3.1L236.8,50.4z"/>
			<path class="st13" d="M255.4,77.4l-10-4l18.1-45.6l10,4L255.4,77.4z"/>
			<path class="st13" d="M283.8,61.8L283.8,61.8c1.7-0.7,3.5-0.9,5.3-0.6c1.8,0.3,3.5,0.9,4.9,1.9c1.9,1.2,3.4,2.7,4.5,4.5
				s1.8,3.6,2.2,5.6s0.3,4-0.2,6c-0.4,2.1-1.2,4-2.4,5.8c-1.2,1.9-2.6,3.4-4.3,4.6c-1.7,1.2-3.5,2.1-5.4,2.6s-3.9,0.6-5.9,0.3
				c-2-0.3-4-1.1-5.9-2.3c-1.5-1-2.8-2.2-3.8-3.6c-1.1-1.4-1.7-3-2-4.8L261,97.2l-9.1-5.8l24.6-38.2l9.1,5.8L283.8,61.8z
				 M286.7,69.5c-0.9-0.6-1.9-1-2.8-1.1s-1.8-0.1-2.6,0.1c-0.8,0.2-1.6,0.6-2.3,1.1c-0.7,0.5-1.3,1.2-1.8,2c-1,1.6-1.4,3.3-1.1,5.1
				c0.3,1.7,1.4,3.2,3.2,4.4c1.9,1.2,3.6,1.6,5.4,1.1c1.7-0.4,3.1-1.5,4.1-3.1c0.5-0.8,0.9-1.6,1-2.5c0.2-0.9,0.2-1.7,0-2.6
				c-0.2-0.8-0.5-1.6-1-2.4C288.3,70.8,287.6,70.1,286.7,69.5z"/>
			<path class="st13" d="M299.6,108.3l-7.8-7.4l34-35.4l7.8,7.4L299.6,108.3z"/>
			<path class="st13" d="M310.4,120.9l-6.8-8.3L327,93.3l6.8,8.3L310.4,120.9z M344.1,86.2c0.5,0.6,0.9,1.3,1.1,2.1
				c0.2,0.8,0.3,1.5,0.2,2.3c-0.1,0.8-0.3,1.5-0.7,2.2c-0.4,0.7-0.9,1.3-1.5,1.8s-1.3,0.9-2.1,1.1c-0.8,0.2-1.5,0.3-2.3,0.2
				c-0.8-0.1-1.5-0.3-2.2-0.7c-0.7-0.4-1.3-0.9-1.9-1.5s-0.9-1.3-1.1-2.1s-0.3-1.5-0.2-2.3c0.1-0.8,0.3-1.5,0.7-2.2
				c0.4-0.7,0.9-1.3,1.5-1.8s1.3-0.9,2.1-1.1s1.5-0.3,2.3-0.2c0.8,0.1,1.5,0.3,2.2,0.7C342.9,85.1,343.6,85.6,344.1,86.2z"/>
			<path class="st13" d="M342.5,121.4l0.1,0.1c2.2,0.2,4,0.8,5.4,1.8s2.6,2.4,3.6,4.3c1,1.8,1.6,3.5,1.7,5c0.2,1.6,0,3-0.6,4.3
				c-0.5,1.3-1.4,2.6-2.5,3.7c-1.2,1.1-2.6,2.1-4.2,3l-16.5,9l-5.2-9.4l13-7.1c0.6-0.3,1.3-0.7,2.1-1.2c0.8-0.5,1.5-1,2.1-1.6
				s1-1.4,1.1-2.2c0.2-0.9-0.1-1.9-0.7-3c-0.5-1-1.1-1.7-1.8-2.1c-0.7-0.4-1.4-0.7-2.2-0.8c-0.8-0.1-1.6,0-2.4,0.3s-1.7,0.6-2.5,1.1
				l-13.8,7.5l-5.2-9.4l26.6-14.6l5.2,9.4L342.5,121.4z"/>
			<path class="st13" d="M351.7,184l-5.6-21.9c-2.1,0.5-3.6,1.5-4.5,2.9c-0.8,1.4-1,3.1-0.4,5.3c0.3,1.1,0.7,2,1.3,2.7
				c0.6,0.7,1.5,1.2,2.6,1.6l2.6,10c-1.8,0-3.5-0.3-5-0.9c-1.5-0.6-2.9-1.5-4-2.7c-1.2-1.1-2.2-2.5-3-4s-1.4-3.1-1.9-4.8
				c-0.6-2.4-0.9-4.8-0.7-7.1c0.2-2.3,0.7-4.3,1.6-6.2c0.9-1.8,2.3-3.4,4-4.8c1.7-1.4,3.9-2.4,6.4-3c2.4-0.6,4.7-0.8,6.9-0.5
				c2.2,0.3,4.1,1,5.8,2.1c1.7,1.1,3.2,2.5,4.4,4.3c1.2,1.8,2.2,3.9,2.8,6.3c0.7,2.6,0.8,4.9,0.6,7.1c-0.3,2.2-0.9,4.1-2,5.9
				c-1.1,1.7-2.5,3.2-4.3,4.5c-1.8,1.2-4,2.2-6.5,2.8L351.7,184z M355.2,172.8c1.3-0.6,2.3-1.6,2.8-3c0.6-1.3,0.6-2.7,0.3-4.1
				c-0.4-1.5-1.1-2.8-2.2-3.7s-2.4-1.4-4-1.3L355.2,172.8z"/>
		</g>
	</g>
	<g class="st14">
		<path class="st13" d="M25.4,377.7c-2.1-4.4-3.2-9.3-3.2-14.6c0-5.3,1.1-10.2,3.2-14.6s4.9-7.9,8.4-10.5h7.2v0.7
			c-7.8,6.4-11.8,14.6-11.8,24.4c0,9.9,3.9,18,11.8,24.4v0.7h-7.2C30.4,385.6,27.6,382.1,25.4,377.7z"/>
		<path class="st13" d="M41.6,349.5h20.6v5.4l-11.1,25.4h-7.9l11.6-24.8H41.6V349.5z"/>
		<path class="st13" d="M72,350.5c1.6-0.8,3.4-1.2,5.6-1.2c2.2,0,4,0.4,5.6,1.2c1.6,0.8,2.8,1.9,3.7,3.3s1.6,3,2,4.8
			c0.4,1.8,0.6,3.8,0.6,6.1c0,2.3-0.2,4.3-0.6,6.1c-0.4,1.8-1.1,3.4-2,4.8s-2.2,2.5-3.7,3.3c-1.6,0.8-3.4,1.2-5.6,1.2
			c-2.2,0-4-0.4-5.6-1.2c-1.6-0.8-2.8-1.9-3.7-3.3c-0.9-1.4-1.6-3-2-4.8c-0.4-1.8-0.6-3.8-0.6-6.1c0-2.3,0.2-4.3,0.6-6.1
			c0.4-1.8,1.1-3.4,2-4.8C69.2,352.4,70.5,351.3,72,350.5z M79.8,356.7c-0.6-0.3-1.3-0.5-2.2-0.5c-0.8,0-1.5,0.2-2.2,0.5
			c-0.6,0.3-1.1,0.7-1.4,1.2c-0.3,0.5-0.6,1.1-0.8,1.9c-0.2,0.8-0.3,1.6-0.4,2.3c-0.1,0.7-0.1,1.6-0.1,2.6c0,1,0,1.9,0.1,2.6
			c0.1,0.7,0.2,1.5,0.4,2.3c0.2,0.8,0.5,1.4,0.8,1.9c0.3,0.5,0.8,0.9,1.4,1.2c0.6,0.3,1.3,0.5,2.2,0.5c0.8,0,1.5-0.2,2.2-0.5
			c0.6-0.3,1.1-0.7,1.4-1.2c0.3-0.5,0.6-1.1,0.8-1.9c0.2-0.8,0.3-1.6,0.4-2.3c0.1-0.7,0.1-1.6,0.1-2.6c0-1,0-1.9-0.1-2.6
			c-0.1-0.7-0.2-1.5-0.4-2.3c-0.2-0.8-0.5-1.4-0.8-1.9C80.9,357.4,80.4,357,79.8,356.7z"/>
		<path class="st13" d="M93.3,349.5h20.6v5.4l-11.1,25.4h-7.9l11.6-24.8H93.3V349.5z"/>
		<path class="st13" d="M130,348.5c2.1,4.4,3.2,9.3,3.2,14.6c0,5.3-1.1,10.2-3.2,14.6c-2.1,4.4-4.9,7.9-8.4,10.6h-7.2v-0.7
			c7.8-6.4,11.8-14.6,11.8-24.4c0-9.9-3.9-18-11.8-24.4V338h7.2C125,340.6,127.8,344.1,130,348.5z"/>
		<path class="st13" d="M139,368.3v-6.1h18.8v6.1H139z"/>
		<path class="st13" d="M177.2,380.3v-5.5h-14.3v-5.9l13.5-19.3h8.1v18.9h3.5v6.3h-3.5v5.5H177.2z M177.7,368.4v-10.6l-6.7,10.6
			H177.7z"/>
		<path class="st13" d="M196,380.3v-23.5h-5.2V350h12.7v30.3H196z"/>
		<path class="st13" d="M224,380.3v-5.5h-14.3v-5.9l13.5-19.3h8.1v18.9h3.5v6.3h-3.5v5.5H224z M224.5,368.4v-10.6l-6.7,10.6H224.5z"
			/>
		<path class="st13" d="M239.5,368.3v-6.1h18.8v6.1H239.5z"/>
		<path class="st13" d="M269.5,350.5c1.6-0.8,3.4-1.2,5.6-1.2c2.2,0,4,0.4,5.6,1.2c1.6,0.8,2.8,1.9,3.7,3.3s1.6,3,2,4.8
			c0.4,1.8,0.6,3.8,0.6,6.1c0,2.3-0.2,4.3-0.6,6.1c-0.4,1.8-1.1,3.4-2,4.8s-2.2,2.5-3.7,3.3c-1.6,0.8-3.4,1.2-5.6,1.2
			c-2.2,0-4-0.4-5.6-1.2c-1.6-0.8-2.8-1.9-3.7-3.3s-1.6-3-2-4.8c-0.4-1.8-0.6-3.8-0.6-6.1c0-2.3,0.2-4.3,0.6-6.1
			c0.4-1.8,1.1-3.4,2-4.8S267.9,351.3,269.5,350.5z M277.3,356.7c-0.6-0.3-1.3-0.5-2.2-0.5c-0.8,0-1.5,0.2-2.2,0.5
			c-0.6,0.3-1.1,0.7-1.4,1.2c-0.3,0.5-0.6,1.1-0.8,1.9c-0.2,0.8-0.3,1.6-0.4,2.3c-0.1,0.7-0.1,1.6-0.1,2.6c0,1,0,1.9,0.1,2.6
			s0.2,1.5,0.4,2.3c0.2,0.8,0.5,1.4,0.8,1.9c0.3,0.5,0.8,0.9,1.4,1.2c0.6,0.3,1.3,0.5,2.2,0.5c0.8,0,1.5-0.2,2.2-0.5
			c0.6-0.3,1.1-0.7,1.4-1.2c0.3-0.5,0.6-1.1,0.8-1.9s0.3-1.6,0.4-2.3s0.1-1.6,0.1-2.6c0-1,0-1.9-0.1-2.6c-0.1-0.7-0.2-1.5-0.4-2.3
			c-0.2-0.8-0.5-1.4-0.8-1.9C278.4,357.4,277.9,357,277.3,356.7z"/>
		<path class="st13" d="M305.5,380.3v-5.5h-14.3v-5.9l13.5-19.3h8.1v18.9h3.5v6.3h-3.5v5.5H305.5z M306,368.4v-10.6l-6.7,10.6H306z"
			/>
		<path class="st13" d="M334.3,380.3v-5.5H320v-5.9l13.5-19.3h8.1v18.9h3.5v6.3h-3.5v5.5H334.3z M334.8,368.4v-10.6l-6.7,10.6H334.8
			z"/>
		<path class="st13" d="M363.2,380.3v-5.5h-14.3v-5.9l13.5-19.3h8.1v18.9h3.5v6.3h-3.5v5.5H363.2z M363.7,368.4v-10.6l-6.7,10.6
			H363.7z"/>
	</g>
</g>
</svg>
